<?xml version="1.0" encoding="UTF-8" standalone="no"?><!DOCTYPE svg PUBLIC "-//W3C//DTD SVG 1.1//EN" "http://www.w3.org/Graphics/SVG/1.1/DTD/svg11.dtd"><svg width="100%" height="100%" viewBox="0 0 3755 3755" version="1.1" xmlns="http://www.w3.org/2000/svg" xmlns:xlink="http://www.w3.org/1999/xlink" xml:space="preserve" xmlns:serif="http://www.serif.com/" style="fill-rule:evenodd;clip-rule:evenodd;stroke-linejoin:round;stroke-miterlimit:2;"><rect id="Artboard1" x="0" y="0" width="3754.93" height="3754.93" style="fill:none;"/><clipPath id="_clip1"><rect x="0" y="0" width="3754.93" height="3754.93"/></clipPath><g clip-path="url(#_clip1)"><g><path d="M585.979,799.723c-50.532,-0 -91.833,6.316 -123.901,18.949c-32.069,12.633 -56.849,29.639 -74.341,51.018c-17.492,21.379 -29.639,47.131 -36.441,77.256c-6.803,30.125 -10.204,62.68 -10.204,97.663l0,906.664l-341.092,0l-0,-1483.9l711.338,0c85.515,0 161.314,14.577 227.394,43.73c66.081,29.153 120.986,67.538 164.716,115.155c43.729,47.617 76.77,102.036 99.121,163.258c22.35,61.222 33.526,122.929 33.526,185.123l-0,976.631l-341.092,0l-0,-906.664c-0,-34.983 -2.916,-67.538 -8.746,-97.663c-5.831,-30.125 -17.006,-55.877 -33.527,-77.256c-16.52,-21.379 -40.328,-38.385 -71.425,-51.018c-31.097,-12.633 -72.883,-18.949 -125.359,-18.949l-69.967,-0Z" style="fill:#fff;fill-rule:nonzero;"/><path d="M1941.6,467.376c85.516,0 161.8,13.119 228.852,39.357c67.052,26.238 124.387,62.68 172.004,109.325c47.617,46.645 84.058,103.008 109.324,169.088c25.266,66.081 37.899,140.907 37.899,224.48l0,399.398c0,81.629 -12.633,155.97 -37.899,223.022c-25.266,67.052 -61.707,124.387 -109.324,172.004c-47.617,47.616 -104.952,84.058 -172.004,109.324c-67.052,25.266 -143.336,37.899 -228.852,37.899l-119.528,0c-83.573,0 -159.371,-12.633 -227.395,-37.899c-68.024,-25.266 -125.845,-61.708 -173.462,-109.324c-47.617,-47.617 -83.572,-104.952 -107.866,-172.004c-24.295,-67.052 -36.442,-141.393 -36.442,-223.022l0,-399.398c0,-83.573 12.147,-158.399 36.442,-224.48c24.294,-66.08 60.249,-122.443 107.866,-169.088c47.617,-46.645 105.438,-83.087 173.462,-109.325c68.024,-26.238 143.822,-39.357 227.395,-39.357l119.528,0Zm-119.528,335.262c-60.25,-0 -111.268,19.921 -153.055,59.764c-41.786,39.843 -62.679,91.832 -62.679,155.969l0,378.992c0,64.137 20.893,116.612 62.679,157.427c41.787,40.814 92.805,61.222 153.055,61.222l119.528,-0c62.193,-0 113.211,-20.408 153.054,-61.222c39.842,-40.815 59.764,-93.29 59.764,-157.427l-0,-378.992c-0,-64.137 -19.922,-116.126 -59.764,-155.969c-39.843,-39.843 -90.861,-59.764 -153.054,-59.764l-119.528,-0Z" style="fill:#fff;fill-rule:nonzero;"/><path d="M3206.85,467.376c85.516,0 161.801,13.119 228.853,39.357c67.052,26.238 124.387,62.68 172.004,109.325c47.616,46.645 84.058,103.008 109.324,169.088c25.266,66.081 37.899,140.907 37.899,224.48l0,399.398c0,81.629 -12.633,155.97 -37.899,223.022c-25.266,67.052 -61.708,124.387 -109.324,172.004c-47.617,47.616 -104.952,84.058 -172.004,109.324c-67.052,25.266 -143.337,37.899 -228.853,37.899l-93.29,0c-85.516,0 -163.258,-13.605 -233.225,-40.814l-0,548.079l-338.177,0l-0,-1991.16l664.692,0Zm-326.515,335.262l-0,594.725c-0,64.137 19.435,116.612 58.306,157.427c38.871,40.814 89.403,61.222 151.597,61.222l116.612,-0c62.194,-0 113.698,-20.408 154.512,-61.222c40.815,-40.815 61.222,-93.29 61.222,-157.427l-0,-378.992c-0,-64.137 -20.407,-116.126 -61.222,-155.969c-40.814,-39.843 -92.318,-59.764 -154.512,-59.764l-326.515,-0Z" style="fill:#fff;fill-rule:nonzero;"/></g><path d="M2189.16,2652.68l-0,-4.613c36.04,-10.765 68.309,-24.221 96.806,-40.368c31.012,-13.84 58.67,-31.14 82.977,-51.9c49.451,-42.29 74.176,-100.341 74.176,-174.156c0,-66.125 -18.02,-121.486 -54.061,-166.082c-32.687,-45.365 -76.271,-80.734 -130.751,-106.108c-113.15,-48.44 -231.748,-71.891 -355.794,-70.354c-149.191,-1.537 -276.171,26.527 -380.939,84.195c-103.093,59.974 -167.211,160.699 -192.356,302.177l346.994,-0c8.382,-49.979 30.593,-85.348 66.633,-106.108c36.04,-23.067 81.72,-34.601 137.038,-34.601c51.127,0 99.32,8.458 144.58,25.374c47.775,19.222 72.5,55.36 74.177,108.414c-1.677,56.899 -34.365,93.422 -98.064,109.568c-58.67,16.916 -114.407,24.605 -167.211,23.067c-31.011,0 -58.67,-1.537 -82.977,-4.613l0,238.743c40.232,-0 78.367,-0.769 114.408,-2.307c46.098,-1.538 97.225,6.151 153.381,23.067c62.023,20.76 93.873,66.51 95.549,137.248c-1.676,52.285 -28.916,88.424 -81.719,108.415c-48.613,20.76 -97.645,31.14 -147.096,31.14c-67.052,0 -122.789,-14.224 -167.21,-42.674c-44.422,-28.449 -68.729,-74.198 -72.919,-137.248l-359.567,0c8.382,83.81 31.431,152.242 69.148,205.296c39.393,53.823 89.263,95.728 149.609,125.715c56.156,29.987 118.599,50.363 187.327,61.127c67.052,12.303 134.942,18.454 203.67,18.454c212.89,-3.076 365.853,-39.983 458.887,-110.722c92.197,-67.663 137.457,-148.012 135.78,-241.049c0,-90.73 -28.078,-160.7 -84.234,-209.909c-53.641,-48.441 -125.722,-81.503 -216.242,-99.188Z" style="fill:#fff;fill-rule:nonzero;"/><path d="M903.944,2652.68l0,-4.613c36.041,-10.765 68.31,-24.221 96.807,-40.368c31.011,-13.84 58.67,-31.14 82.976,-51.9c49.451,-42.29 74.177,-100.341 74.177,-174.156c-0,-66.125 -18.02,-121.486 -54.061,-166.082c-32.688,-45.365 -76.272,-80.734 -130.751,-106.108c-113.15,-48.44 -231.749,-71.891 -355.795,-70.354c-149.19,-1.537 -276.17,26.527 -380.939,84.195c-103.092,59.974 -167.211,160.699 -192.355,302.177l346.994,-0c8.381,-49.979 30.592,-85.348 66.633,-106.108c36.04,-23.067 81.719,-34.601 137.037,-34.601c51.127,0 99.321,8.458 144.581,25.374c47.775,19.222 72.5,55.36 74.176,108.414c-1.676,56.899 -34.364,93.422 -98.063,109.568c-58.671,16.916 -114.408,24.605 -167.211,23.067c-31.012,0 -58.671,-1.537 -82.977,-4.613l0,238.743c40.231,-0 78.367,-0.769 114.407,-2.307c46.099,-1.538 97.226,6.151 153.382,23.067c62.023,20.76 93.873,66.51 95.549,137.248c-1.676,52.285 -28.916,88.424 -81.72,108.415c-48.612,20.76 -97.644,31.14 -147.095,31.14c-67.052,0 -122.789,-14.224 -167.211,-42.674c-44.422,-28.449 -68.728,-74.198 -72.919,-137.248l-359.566,0c8.381,83.81 31.431,152.242 69.147,205.296c39.393,53.823 89.263,95.728 149.61,125.715c56.156,29.987 118.598,50.363 187.327,61.127c67.051,12.303 134.942,18.454 203.67,18.454c212.89,-3.076 365.852,-39.983 458.887,-110.722c92.196,-67.663 137.456,-148.012 135.78,-241.049c0,-90.73 -28.078,-160.7 -84.234,-209.909c-53.642,-48.441 -125.722,-81.503 -216.243,-99.188Z" style="fill:#fff;fill-rule:nonzero;"/></g></svg>